<?xml version="1.0" encoding="utf-8"?>
<!DOCTYPE svg
  PUBLIC '-//W3C//DTD SVG 1.0//EN'
  'http://www.w3.org/TR/2001/REC-SVG-20010904/DTD/svg10.dtd'>
<svg width="760" height="330" preserveAspectRatio="xMinYMin meet" viewBox="0 0 760 330" xmlns="http://www.w3.org/2000/svg" version="1.0" fill-rule="evenodd" xmlns:xlink="http://www.w3.org/1999/xlink">
	<title>...</title>
	<desc>...</desc>
	<clipPath id="clip">
		<rect x="0" y="0" width="760" height="330"/>
	</clipPath>
	<g id="group" transform="scale(1,-1) translate(0,-330)" style="clip-path: url(#clip)">
		<g transform="">
			<rect x="0" y="0" width="760" height="330" style="stroke: none; stroke-linecap: butt; stroke-width: 1; fill: rgb(100%,100%,100%); fill-rule: evenodd;"/>
			<text x="80" y="308" style="font-family: Times-Roman; font-size: 15px;fill: rgb(0%,0%,0%); stroke:none;" transform="translate(0,616) scale(1,-1)">CONV-01A: historical baseline training loss</text>
			<text x="80" y="288" style="font-family: Times-Roman; font-size: 11px;fill: rgb(14%,38%,92%); stroke:none;" transform="translate(0,576) scale(1,-1)">Training loss; all 30 epochs</text>
			<g transform="">
				<g transform="">
					<g transform="">
						<path d="M 80,55 L 700,55 Z" style="stroke: rgb(0%,0%,0%); stroke-linecap: butt; stroke-width: 1;"/>
					</g>
					<g transform="">
						<path d="M 80,55 L 80,50 Z" style="stroke: rgb(0%,0%,0%); stroke-linecap: butt; stroke-width: 1;"/>
						<path d="M 165.517241,55 L 165.517241,50 Z" style="stroke: rgb(0%,0%,0%); stroke-linecap: butt; stroke-width: 1;"/>
						<path d="M 272.413793,55 L 272.413793,50 Z" style="stroke: rgb(0%,0%,0%); stroke-linecap: butt; stroke-width: 1;"/>
						<path d="M 379.310345,55 L 379.310345,50 Z" style="stroke: rgb(0%,0%,0%); stroke-linecap: butt; stroke-width: 1;"/>
						<path d="M 486.206897,55 L 486.206897,50 Z" style="stroke: rgb(0%,0%,0%); stroke-linecap: butt; stroke-width: 1;"/>
						<path d="M 593.103448,55 L 593.103448,50 Z" style="stroke: rgb(0%,0%,0%); stroke-linecap: butt; stroke-width: 1;"/>
						<path d="M 700,55 L 700,50 Z" style="stroke: rgb(0%,0%,0%); stroke-linecap: butt; stroke-width: 1;"/>
					</g>
					<g transform="">
						<g transform=" matrix(1,0,0,1,80,50)">
							<text x="-2.5" y="-10.0" style="font-family: Times-Roman; font-size: 10px;fill: rgb(0%,0%,0%); stroke:none;" transform="translate(0,-20) scale(1,-1)">1</text>
						</g>
						<g transform=" matrix(1,0,0,1,165.517241,50)">
							<text x="-2.5" y="-10.0" style="font-family: Times-Roman; font-size: 10px;fill: rgb(0%,0%,0%); stroke:none;" transform="translate(0,-20) scale(1,-1)">5</text>
						</g>
						<g transform=" matrix(1,0,0,1,272.413793,50)">
							<text x="-5.0" y="-10.0" style="font-family: Times-Roman; font-size: 10px;fill: rgb(0%,0%,0%); stroke:none;" transform="translate(0,-20) scale(1,-1)">10</text>
						</g>
						<g transform=" matrix(1,0,0,1,379.310345,50)">
							<text x="-5.0" y="-10.0" style="font-family: Times-Roman; font-size: 10px;fill: rgb(0%,0%,0%); stroke:none;" transform="translate(0,-20) scale(1,-1)">15</text>
						</g>
						<g transform=" matrix(1,0,0,1,486.206897,50)">
							<text x="-5.0" y="-10.0" style="font-family: Times-Roman; font-size: 10px;fill: rgb(0%,0%,0%); stroke:none;" transform="translate(0,-20) scale(1,-1)">20</text>
						</g>
						<g transform=" matrix(1,0,0,1,593.103448,50)">
							<text x="-5.0" y="-10.0" style="font-family: Times-Roman; font-size: 10px;fill: rgb(0%,0%,0%); stroke:none;" transform="translate(0,-20) scale(1,-1)">25</text>
						</g>
						<g transform=" matrix(1,0,0,1,700,50)">
							<text x="-5.0" y="-10.0" style="font-family: Times-Roman; font-size: 10px;fill: rgb(0%,0%,0%); stroke:none;" transform="translate(0,-20) scale(1,-1)">30</text>
						</g>
					</g>
				</g>
				<g transform="">
					<g transform="">
						<path d="M 80,55 L 80,275 Z" style="stroke: rgb(0%,0%,0%); stroke-linecap: butt; stroke-width: 1;"/>
					</g>
					<g transform="">
						<path d="M 80,55 L 75,55 Z" style="stroke: rgb(0%,0%,0%); stroke-linecap: butt; stroke-width: 1;"/>
						<path d="M 80,114.813366 L 75,114.813366 Z" style="stroke: rgb(0%,0%,0%); stroke-linecap: butt; stroke-width: 1;"/>
						<path d="M 80,174.626733 L 75,174.626733 Z" style="stroke: rgb(0%,0%,0%); stroke-linecap: butt; stroke-width: 1;"/>
						<path d="M 80,234.440099 L 75,234.440099 Z" style="stroke: rgb(0%,0%,0%); stroke-linecap: butt; stroke-width: 1;"/>
					</g>
					<g transform="">
						<g transform=" matrix(1,0,0,1,75,55)">
							<text x="-27.5" y="-4.0" style="font-family: Times-Roman; font-size: 10px;fill: rgb(0%,0%,0%); stroke:none;" transform="translate(0,-8) scale(1,-1)">0.0000</text>
						</g>
						<g transform=" matrix(1,0,0,1,75,114.813366)">
							<text x="-27.5" y="-4.0" style="font-family: Times-Roman; font-size: 10px;fill: rgb(0%,0%,0%); stroke:none;" transform="translate(0,-8) scale(1,-1)">0.2000</text>
						</g>
						<g transform=" matrix(1,0,0,1,75,174.626733)">
							<text x="-27.5" y="-4.0" style="font-family: Times-Roman; font-size: 10px;fill: rgb(0%,0%,0%); stroke:none;" transform="translate(0,-8) scale(1,-1)">0.4000</text>
						</g>
						<g transform=" matrix(1,0,0,1,75,234.440099)">
							<text x="-27.5" y="-4.0" style="font-family: Times-Roman; font-size: 10px;fill: rgb(0%,0%,0%); stroke:none;" transform="translate(0,-8) scale(1,-1)">0.6000</text>
						</g>
					</g>
				</g>
				<g transform="">
					<polyline points="80 259.1913, 101.3793 246.3486, 122.7586 225.2851, 144.1379 192.4909, 165.5172 154.3748, 186.8966 123.1886, 208.2759 103.0079, 229.6552 90.8962, 251.0345 83.02372, 272.4138 78.03317, 293.7931 74.44747, 315.1724 71.83615, 336.5517 69.93677, 357.931 68.53211, 379.3103 67.37687, 400.6897 66.43396, 422.069 65.6752, 443.4483 65.02484, 464.8276 64.4728, 486.2069 64.04833, 507.5862 63.65645, 528.9655 63.28413, 550.3448 62.96578, 571.7241 62.68651, 593.1034 62.45416, 614.4828 62.24553, 635.8621 62.04636, 657.2414 61.87532, 678.6207 61.71575, 700 61.58235" style="stroke: rgb(14%,38%,92%); stroke-linecap: round; stroke-width: 2; fill: None; fill-rule: evenodd;"/>
				</g>
			</g>
			<text x="375" y="23" style="font-family: Times-Roman; font-size: 11px;fill: rgb(0%,0%,0%); stroke:none;" transform="translate(0,46) scale(1,-1)">Epoch</text>
			<g transform=" matrix(0,1,-1,0,18,135)">
				<text x="0" y="0" style="font-family: Times-Roman; font-size: 10px;fill: rgb(0%,0%,0%); stroke:none;" transform="translate(0,0) scale(1,-1)">Weighted BPR loss</text>
			</g>
		</g>
	</g>
</svg>
